<?xml version="1.0" standalone="no"?>
<!DOCTYPE svg PUBLIC "-//W3C//DTD SVG 20010904//EN"
 "http://www.w3.org/TR/2001/REC-SVG-20010904/DTD/svg10.dtd">
<svg version="1.0" xmlns="http://www.w3.org/2000/svg"
 width="800.000000pt" height="800.000000pt" viewBox="0 0 800.000000 800.000000"
 preserveAspectRatio="xMidYMid meet">
<metadata>
Created by potrace 1.14, written by Peter Selinger 2001-2017
</metadata>
<g transform="translate(0.000000,800.000000) scale(0.100000,-0.100000)"
fill="#000000" stroke="none">
<path d="M2540 4000 l0 -4002 138 6 c75 3 148 8 162 11 14 2 45 6 70 9 40 5
174 27 239 41 107 21 378 104 429 131 15 8 31 14 35 14 35 0 436 209 445 232
2 4 7 8 12 8 12 0 144 90 148 101 2 5 8 9 13 9 10 0 13 2 62 42 15 13 41 34
58 48 135 108 317 295 434 445 119 154 201 282 295 464 l45 87 50 -28 c28 -16
65 -36 83 -45 17 -9 32 -20 32 -25 0 -4 4 -8 10 -8 14 0 172 -112 280 -199 97
-77 341 -315 395 -384 17 -22 40 -51 52 -65 12 -15 30 -38 40 -51 l19 -24 61
74 c90 111 213 282 284 394 69 110 159 264 159 272 0 3 9 17 19 31 10 15 19
29 19 32 0 12 27 66 40 82 7 9 15 22 16 30 1 7 17 44 35 83 52 110 109 252
142 350 17 49 33 97 36 105 4 8 7 17 8 20 1 3 9 30 19 60 25 80 93 349 101
401 4 24 8 46 10 49 2 4 6 28 10 54 3 27 7 51 9 55 2 3 7 33 11 66 4 33 9 76
11 95 24 192 29 283 29 530 0 227 -5 333 -19 450 -3 19 -7 62 -11 95 -3 33 -8
67 -10 75 -2 8 -6 35 -10 60 -3 25 -7 52 -9 60 -1 8 -6 33 -11 55 -4 22 -10
49 -12 60 -2 11 -6 31 -8 45 -2 14 -15 70 -30 125 -14 55 -27 107 -29 116 -3
9 -14 49 -26 90 -12 41 -23 79 -24 84 -1 6 -8 20 -14 33 -7 12 -10 22 -6 22 3
0 1 7 -6 15 -7 8 -10 15 -7 15 4 0 -2 20 -13 44 -10 24 -16 47 -13 50 4 3 1 6
-5 6 -7 0 -12 6 -12 13 0 23 -46 135 -114 278 -20 42 -36 79 -36 82 0 2 -12
26 -27 53 -15 27 -28 55 -30 62 -1 8 -8 21 -15 30 -8 10 -20 31 -28 47 -25 51
-133 230 -142 233 -4 2 -8 8 -8 13 0 12 -101 163 -112 167 -4 2 -8 8 -8 13 0
19 -199 270 -320 403 -77 85 -306 311 -376 372 -111 95 -246 202 -319 253 -28
19 -52 38 -55 41 -3 4 -20 15 -37 25 -18 11 -33 23 -33 27 0 4 -5 8 -11 8 -6
0 -25 11 -43 25 -18 14 -38 25 -44 25 -7 0 -12 4 -12 9 0 5 -13 14 -30 21 -16
7 -30 16 -30 21 0 5 -5 9 -11 9 -7 0 -39 17 -73 38 -34 21 -79 46 -101 57 -22
11 -42 22 -45 25 -13 13 -91 50 -104 50 -9 0 -16 4 -16 9 0 4 -21 18 -47 29
-27 12 -79 35 -116 52 -105 46 -140 61 -164 71 -13 5 -34 14 -48 19 -14 6 -35
15 -48 21 -13 5 -29 11 -37 13 -8 2 -22 6 -30 9 -8 4 -58 20 -110 37 -52 17
-102 34 -110 37 -8 3 -26 8 -40 10 -13 2 -30 9 -37 15 -7 6 -13 8 -13 5 0 -3
-15 -1 -32 4 -41 13 -226 59 -253 64 -11 2 -30 6 -41 8 -42 10 -99 20 -121 21
-13 1 -23 3 -23 6 0 3 -8 6 -17 6 -21 1 -116 14 -147 20 -33 7 -159 21 -256
28 -25 2 -129 7 -232 11 l-188 7 0 -4002z"/>
<path d="M1230 6038 c-51 -13 -128 -48 -158 -72 -114 -94 -164 -193 -168 -331
-3 -123 34 -220 116 -304 84 -86 186 -129 305 -128 230 1 411 175 421 405 8
187 -105 352 -286 417 -52 19 -179 26 -230 13z"/>
</g>
</svg>
